<svg viewBox="0 0 65 65" version="1.1" xmlns="http://www.w3.org/2000/svg">
<defs>
<linearGradient id="JAID_1" x1="1.8383" x2=".2053" y1="2.0516" y2=".037961">
<stop stop-color="#84D9FF" offset="0"/>
<stop stop-color="#2999F5" offset="1"/>
</linearGradient>
<linearGradient id="JAID_2" x1="1.4965" x2=".12418" y1="2.2823" y2="-.07317">
<stop stop-color="#84D9FF" offset="0"/>
<stop stop-color="#2999F5" offset="1"/>
</linearGradient>
<linearGradient id="JAID_3" x1="1.0359" x2="-.374" y1="1.217" y2="-.8985">
<stop stop-color="#84D9FF" offset="0"/>
<stop stop-color="#2999F5" offset="1"/>
</linearGradient>
<linearGradient id="JAID_4" x1=".71521" x2="-.75874" y1=".78527" y2="-1.1892">
<stop stop-color="#84D9FF" offset="0"/>
<stop stop-color="#2999F5" offset="1"/>
</linearGradient>
<linearGradient id="JAID_5" x1="1.0568" x2="-.20766" y1="1.677" y2="-.92042">
<stop stop-color="#84D9FF" offset="0"/>
<stop stop-color="#2999F5" offset="1"/>
</linearGradient>
<linearGradient id="JAID_6" x1="4e-6" y1=".49996" y2=".49996">
<stop stop-color="#84D9FF" offset="0"/>
<stop stop-color="#2999F5" offset="1"/>
</linearGradient>
</defs>
<g>
<rect id="canvas_background" x="-1" y="-1" width="582" height="402" fill="none"/>
</g>
<g>
<g id="JAID">
<g>
<path d="m36.107 23.134s-1.2798-3.4016 0.59068-8.5877c1.4796-4.1034 5.4254-5.0557 3.5509-9.9209-2.0782-5.3976-17.455-5.5338-19.33 3.2435-1.8734 8.7753 6.2129 17.171 6.2129 17.171l8.9753-1.9055z" fill="url(#JAID_1)"/>
<path d="m23.671 35.028 0.89684-8.8439s-3.736 0.12665-8.2576-3.1968c-3.5765-2.6302-3.295-6.5527-8.6573-6.3327-5.9481 0.24569-10.834 14.349-2.784 18.786 8.0499 4.4329 18.802-0.41234 18.802-0.41234z" fill="url(#JAID_2)"/>
<path d="m24.002 37.741s-1.0307 3.4778-5.6961 6.6079c-3.6898 2.4779-7.4612 1.0066-8.9015 6.008-1.5978 5.548 10.76 14.401 17.609 8.364 6.8489-6.0318 5.4076-17.422 5.4076-17.422l-8.4191-3.5578z" fill="url(#JAID_3)"/>
<path d="m41.291 35.188-6.1017 6.646s3.1001 2.0217 4.7382 7.2831c1.2955 4.1586-1.3152 7.1736 3.1562 10.044 4.9607 3.1845 17.485-5.4461 13.668-13.615-3.8187-8.1659-15.461-10.358-15.461-10.358z" fill="url(#JAID_4)"/>
<path d="m52.985 14.118c-9.2096 0.98752-14.964 11.022-14.964 11.022l4.6486 7.6669s2.9475-2.2265 8.6248-2.1074c4.4901 0.09142 6.6471 3.4244 10.852 0.19712 4.6634-3.5787 0.04627-17.766-9.1614-16.778z" fill="url(#JAID_5)"/>
<path d="m43.749 33.586c-0.53751 6.047-5.9737 10.52-12.14 9.9857-6.1657-0.52662-10.728-5.8547-10.187-11.9 0.53948-6.0451 5.9747-10.518 12.14-9.9876 6.1666 0.52852 10.729 5.8566 10.187 11.902z" fill="#001f47"/>
<path d="m40.627 33.322c-0.38886 4.3748-4.3228 7.6126-8.7863 7.2279-4.4625-0.38092-7.7644-4.2367-7.3726-8.6135 0.38984-4.3767 4.3247-7.6126 8.7863-7.2298 4.4635 0.38282 7.7644 4.2405 7.3726 8.6154z" fill="url(#JAID_6)"/>
</g>
</g>
</g>
</svg>
