<svg version="1.1" viewBox="0 0 180 180" xmlns="http://www.w3.org/2000/svg">
<defs>
<radialGradient id="JAID_A_1_" cx="48.889" cy="150.03" r="14.656" gradientTransform="matrix(9.1531,0,0,-9.4058,-357.22,1410.8)" gradientUnits="userSpaceOnUse">
<stop stop-color="#909091" offset="0"/>
<stop stop-color="#8D8D8D" offset=".1347"/>
<stop stop-color="#828180" offset=".2898"/>
<stop stop-color="#706E6C" offset=".4549"/>
<stop stop-color="#585554" offset=".6272"/>
<stop stop-color="#3B3A38" offset=".8049"/>
<stop stop-color="#1A1B1A" offset=".9848"/>
<stop stop-color="#171818" offset="1"/>
</radialGradient>
<radialGradient id="JAID_1_" cx="-114.96" cy="303.71" r="3.892" gradientTransform="matrix(35.173,0,0,-34.954,4133.3,10617)" gradientUnits="userSpaceOnUse">
<stop stop-color="#909091" offset="0"/>
<stop stop-color="#8D8D8D" offset=".1347"/>
<stop stop-color="#828180" offset=".2898"/>
<stop stop-color="#706E6C" offset=".4549"/>
<stop stop-color="#585554" offset=".6272"/>
<stop stop-color="#3B3A38" offset=".8049"/>
<stop stop-color="#1A1B1A" offset=".9848"/>
<stop stop-color="#171818" offset="1"/>
</radialGradient>
<radialGradient id="JAID_2_" cx="-114.77" cy="303.35" r="3.8868" gradientTransform="matrix(34.615,0,0,-34.399,4063.6,10437)" gradientUnits="userSpaceOnUse">
<stop stop-color="#ABABAB" offset="0"/>
<stop stop-color="#A6A5A4" offset=".177"/>
<stop stop-color="#959291" offset=".3808"/>
<stop stop-color="#7A7675" offset=".5977"/>
<stop stop-color="#585554" offset=".8224"/>
<stop stop-color="#3A3A3A" offset="1"/>
</radialGradient>
<radialGradient id="JAID_3_" cx="-114.95" cy="303.71" r="3.8859" gradientTransform="matrix(35.173,0,0,-34.954,4133.3,10617)" gradientUnits="userSpaceOnUse">
<stop stop-color="#ABABAB" offset="0"/>
<stop stop-color="#A6A6A6" offset=".2106"/>
<stop stop-color="#999797" offset=".453"/>
<stop stop-color="#83807F" offset=".7111"/>
<stop stop-color="#656464" offset=".9785"/>
<stop stop-color="#626262" offset="1"/>
</radialGradient>
<radialGradient id="JAID_4_" cx="-114.77" cy="303.35" r="3.8869" gradientTransform="matrix(34.615,0,0,-34.399,4063.6,10437)" gradientUnits="userSpaceOnUse">
<stop stop-color="#BABAB9" offset="0"/>
<stop stop-color="#B6B5B5" offset=".2106"/>
<stop stop-color="#A9A8A8" offset=".453"/>
<stop stop-color="#959393" offset=".7111"/>
<stop stop-color="#787979" offset=".9785"/>
<stop stop-color="#767677" offset="1"/>
</radialGradient>
<radialGradient id="JAID_5_" cx="-113.98" cy="297.88" r="3.8874" gradientTransform="matrix(31.97,0,0,-31.77,3732.4,9623)" gradientUnits="userSpaceOnUse">
<stop stop-color="#D0D0D0" offset="0"/>
<stop stop-color="#D0D0D0" offset=".5843"/>
<stop stop-color="#B5B2B0" offset=".6219"/>
<stop stop-color="#6A6361" offset=".7433"/>
<stop stop-color="#413E3D" offset=".8313"/>
<stop stop-color="#323232" offset=".8764"/>
<stop stop-color="#323232" offset="1"/>
</radialGradient>
<radialGradient id="JAID_6_" cx="-115.14" cy="300.78" r="3.8849" gradientTransform="matrix(35.862,0,0,-35.638,4219.3,10880)" gradientUnits="userSpaceOnUse">
<stop stop-color="#5D5E5E" offset="0"/>
<stop stop-color="#3B3D3D" offset=".254"/>
<stop stop-color="#040000" offset=".6703"/>
<stop stop-color="#040000" offset="1"/>
</radialGradient>
<linearGradient id="JAID_7_" x1="517.16" x2="496.36" y1="711.77" y2="700.92" gradientTransform="matrix(.97758 0 0 .97148 -394.15 -631.78)" gradientUnits="userSpaceOnUse">
<stop stop-color="#F0851B" offset="0"/>
<stop stop-color="#F19C1F" offset=".2238"/>
<stop stop-color="#EFCE2F" offset=".7062"/>
<stop stop-color="#EBE93B" offset="1"/>
</linearGradient>
<linearGradient id="JAID_8_" x1="528.31" x2="530.95" y1="767.91" y2="744.85" gradientTransform="matrix(.97758 0 0 .97148 -394.15 -631.78)" gradientUnits="userSpaceOnUse">
<stop stop-color="#831A1F" offset="0"/>
<stop stop-color="#9D1A1F" offset=".3166"/>
<stop stop-color="#DC171A" offset="1"/>
</linearGradient>
<linearGradient id="JAID_9_" x1="470.98" x2="494.79" y1="718.93" y2="711.33" gradientTransform="matrix(.97758 0 0 .97148 -394.15 -631.78)" gradientUnits="userSpaceOnUse">
<stop stop-color="#6DB92C" offset="0"/>
<stop stop-color="#58A633" offset=".3252"/>
<stop stop-color="#1C7A3A" offset="1"/>
</linearGradient>
<linearGradient id="JAID_10_" x1="463.57" x2="456.99" y1="718.8" y2="739.32" gradientTransform="matrix(.97758 0 0 .97148 -394.15 -631.78)" gradientUnits="userSpaceOnUse">
<stop stop-color="#6DB92C" offset="0"/>
<stop stop-color="#58A633" offset=".3252"/>
<stop stop-color="#1C7A3A" offset="1"/>
</linearGradient>
<linearGradient id="JAID_11_" x1="466.38" x2="453.72" y1="770.87" y2="745.29" gradientTransform="matrix(.97758 0 0 .97148 -394.15 -631.78)" gradientUnits="userSpaceOnUse">
<stop stop-color="#12381C" offset="0"/>
<stop stop-color="#184825" offset=".2757"/>
<stop stop-color="#1D7037" offset=".8708"/>
<stop stop-color="#1C7A3A" offset="1"/>
</linearGradient>
<radialGradient id="JAID_12_" cx="309.97" cy="296.31" r="70.835" gradientTransform="matrix(1.6347 0 0 2.0628 -416.56 -671.77)" gradientUnits="userSpaceOnUse">
<stop stop-color="#989898" offset="0"/>
<stop stop-color="#5C5C5C" offset=".6703"/>
<stop stop-color="#5C5C5C" offset="1"/>
</radialGradient>
<radialGradient id="JAID_13_" cx="-112.68" cy="292.09" r="8.0049" gradientTransform="matrix(28.75 0 0 -28.57 3330.5 8579.8)" gradientUnits="userSpaceOnUse">
<stop stop-color="#A5A5A4" offset="0"/>
<stop stop-color="#6A6A6A" offset=".6578"/>
<stop stop-color="#696969" offset=".6703"/>
<stop stop-color="#696969" offset="1"/>
</radialGradient>
<linearGradient id="JAID_14_" x1="527.19" x2="500.1" y1="716.94" y2="704.43" gradientTransform="matrix(.97758 0 0 .97148 -394.15 -631.78)" gradientUnits="userSpaceOnUse">
<stop stop-color="#F6AF5D" offset="0"/>
<stop stop-color="#F5C362" offset=".3223"/>
<stop stop-color="#EFEC6A" offset="1"/>
</linearGradient>
<linearGradient id="JAID_15_" x1="468.66" x2="492.47" y1="711.67" y2="704.07" gradientTransform="matrix(.97758 0 0 .97148 -394.15 -631.78)" gradientUnits="userSpaceOnUse">
<stop stop-color="#86C358" offset="0"/>
<stop stop-color="#A7CF5B" offset=".3033"/>
<stop stop-color="#EBEA69" offset=".9583"/>
<stop stop-color="#EFEC6A" offset="1"/>
</linearGradient>
<linearGradient id="JAID_16_" x1="462.14" x2="455.56" y1="718.35" y2="738.86" gradientTransform="matrix(.97758 0 0 .97148 -394.15 -631.78)" gradientUnits="userSpaceOnUse">
<stop stop-color="#86C358" offset="0"/>
<stop stop-color="#A7CF5B" offset=".3033"/>
<stop stop-color="#EBEA69" offset=".9583"/>
<stop stop-color="#EFEC6A" offset="1"/>
</linearGradient>
<radialGradient id="JAID_21_" cx="182.7" cy="104.87" r=".0014" gradientTransform="matrix(0,-5e-4,-5e-4,0,-240,-732.09)" gradientUnits="userSpaceOnUse">
<stop stop-color="#fff" offset="0"/>
<stop stop-color="#999" offset="1"/>
</radialGradient>
<radialGradient id="JAID_22_" cx="182.7" cy="98.88" r=".001" gradientTransform="matrix(0,-5e-4,-5e-4,0,-240,-733.63)" gradientUnits="userSpaceOnUse">
<stop stop-color="#fff" offset="0"/>
<stop stop-color="#999" offset="1"/>
</radialGradient>
<radialGradient id="JAID_26_" cx="16.384" cy="104.87" r=".0027" gradientTransform="matrix(0 -.001 -.001 0 -282.76 -732.05)" gradientUnits="userSpaceOnUse">
<stop stop-color="#fff" offset="0"/>
<stop stop-color="#999" offset="1"/>
</radialGradient>
<radialGradient id="JAID_27_" cx="17.543" cy="104.87" r=".0021" gradientTransform="matrix(0,-5e-4,-5e-4,0,-282.5,-732.09)" gradientUnits="userSpaceOnUse">
<stop stop-color="#fff" offset="0"/>
<stop stop-color="#999" offset="1"/>
</radialGradient>
<radialGradient id="JAID_28_" cx="17.543" cy="98.88" r=".001" gradientTransform="matrix(0,-5e-4,-5e-4,0,-282.5,-733.63)" gradientUnits="userSpaceOnUse">
<stop stop-color="#fff" offset="0"/>
<stop stop-color="#999" offset="1"/>
</radialGradient>
<radialGradient id="JAID_32_" cx="96.62" cy="183.87" r=".0028" gradientTransform="matrix(7e-4,0,0,-7e-4,-262.57,-711.54)" gradientUnits="userSpaceOnUse">
<stop stop-color="#fff" offset="0"/>
<stop stop-color="#999" offset="1"/>
</radialGradient>
<radialGradient id="JAID_33_" cx="96.62" cy="185.02" r=".0028" gradientTransform="matrix(7e-4,0,0,-7e-4,-262.57,-711.24)" gradientUnits="userSpaceOnUse">
<stop stop-color="#fff" offset="0"/>
<stop stop-color="#999" offset="1"/>
</radialGradient>
<radialGradient id="JAID_38_" cx="391.62" cy="-780.9" r="3.8889" gradientTransform="matrix(.6984 0 0 -.6984 -174.58 -527.3)" gradientUnits="userSpaceOnUse">
<stop stop-color="#fff" offset="0"/>
<stop stop-color="#999" offset="1"/>
</radialGradient>
<radialGradient id="JAID_39_" cx="96.62" cy="19.869" r=".0028" gradientTransform="matrix(8e-4,0,0,-8e-4,-262.07,-753.22)" gradientUnits="userSpaceOnUse">
<stop stop-color="#fff" offset="0"/>
<stop stop-color="#999" offset="1"/>
</radialGradient>
<radialGradient id="JAID_40_" cx="360.94" cy="-714.83" r="3.6389" gradientTransform="matrix(.744 0 0 -.744 -168.67 -511.96)" gradientUnits="userSpaceOnUse">
<stop stop-color="#fff" offset="0"/>
<stop stop-color="#999" offset="1"/>
</radialGradient>
<radialGradient id="JAID_45_" cx="160.45" cy="45.23" r=".002" gradientTransform="matrix(-3e-4,-3e-4,-3e-4,3e-4,-245.97,-746.71)" gradientUnits="userSpaceOnUse">
<stop stop-color="#fff" offset="0"/>
<stop stop-color="#999" offset="1"/>
</radialGradient>
<radialGradient id="JAID_46_" cx="156.21" cy="40.995" r=".002" gradientTransform="matrix(-3e-4,-3e-4,-3e-4,3e-4,-247.06,-747.8)" gradientUnits="userSpaceOnUse">
<stop stop-color="#fff" offset="0"/>
<stop stop-color="#999" offset="1"/>
</radialGradient>
<radialGradient id="JAID_50_" cx="42.85" cy="162.84" r=".0031" gradientTransform="matrix(-7e-4,-7e-4,-7e-4,7e-4,-276.16,-717.22)" gradientUnits="userSpaceOnUse">
<stop stop-color="#fff" offset="0"/>
<stop stop-color="#999" offset="1"/>
</radialGradient>
<radialGradient id="JAID_52_" cx="39.436" cy="157.78" r=".002" gradientTransform="matrix(-3e-4,-3e-4,-3e-4,3e-4,-277.11,-717.75)" gradientUnits="userSpaceOnUse">
<stop stop-color="#fff" offset="0"/>
<stop stop-color="#999" offset="1"/>
</radialGradient>
<radialGradient id="JAID_56_" cx="155.44" cy="161.96" r=".0044" gradientTransform="matrix(7e-4,-7e-4,-7e-4,-7e-4,-247.08,-717.07)" gradientUnits="userSpaceOnUse">
<stop stop-color="#fff" offset="0"/>
<stop stop-color="#999" offset="1"/>
</radialGradient>
<radialGradient id="JAID_57_" cx="156.26" cy="162.78" r=".0039" gradientTransform="matrix(7e-4,-7e-4,-7e-4,-7e-4,-246.54,-716.86)" gradientUnits="userSpaceOnUse">
<stop stop-color="#fff" offset="0"/>
<stop stop-color="#999" offset="1"/>
</radialGradient>
<radialGradient id="JAID_58_" cx="160.5" cy="158.54" r=".002" gradientTransform="matrix(3e-4,-3e-4,-3e-4,-3e-4,-246.55,-718.03)" gradientUnits="userSpaceOnUse">
<stop stop-color="#fff" offset="0"/>
<stop stop-color="#999" offset="1"/>
</radialGradient>
<radialGradient id="JAID_62_" cx="38.658" cy="45.171" r=".0041" gradientTransform="matrix(7e-4,-7e-4,-7e-4,-7e-4,-277.14,-747.13)" gradientUnits="userSpaceOnUse">
<stop stop-color="#fff" offset="0"/>
<stop stop-color="#999" offset="1"/>
</radialGradient>
<radialGradient id="JAID_63_" cx="39.478" cy="45.993" r=".002" gradientTransform="matrix(4e-4,-4e-4,-4e-4,-4e-4,-276.69,-746.97)" gradientUnits="userSpaceOnUse">
<stop stop-color="#fff" offset="0"/>
<stop stop-color="#999" offset="1"/>
</radialGradient>
<radialGradient id="JAID_64_" cx="43.713" cy="41.759" r="0" gradientTransform="matrix(.00019552 -.0001943 -.00019552 -.0001943 -277.04 -734.93)" gradientUnits="userSpaceOnUse">
<stop stop-color="#fff" offset="0"/>
<stop stop-color="#999" offset="1"/>
</radialGradient>
<linearGradient id="JAID_65_" x1="525.48" x2="535.24" y1="716.01" y2="745.69" gradientTransform="matrix(.97758 0 0 .97148 -394.15 -631.78)" gradientUnits="userSpaceOnUse">
<stop stop-color="#F0851B" offset="0"/>
<stop stop-color="#EA6B1A" offset=".3252"/>
<stop stop-color="#DC171A" offset="1"/>
</linearGradient>
<linearGradient id="JAID_66_" x1="520.23" x2="512.89" y1="719.44" y2="715.61" gradientTransform="matrix(.97758 0 0 .97148 -394.15 -631.78)" gradientUnits="userSpaceOnUse">
<stop stop-color="#F0851B" offset="0"/>
<stop stop-color="#F19C1F" offset=".2238"/>
<stop stop-color="#EFCE2F" offset=".7062"/>
<stop stop-color="#EBE93B" offset="1"/>
</linearGradient>
<radialGradient id="JAID_67_" cx="298.29" cy="295.48" r="69.713" gradientTransform="matrix(1.7062 0 0 2.1531 -419 -675.07)" gradientUnits="userSpaceOnUse">
<stop stop-color="#989898" offset="0"/>
<stop stop-color="#5C5C5C" offset=".6703"/>
<stop stop-color="#5C5C5C" offset="1"/>
</radialGradient>
<radialGradient id="JAID_68_" cx="230.88" cy="291.55" r="46.556" gradientTransform="matrix(2.2983 0 0 2.4928 -439.77 -694.07)" gradientUnits="userSpaceOnUse">
<stop stop-color="#717171" offset="0"/>
<stop stop-color="#4E4D4C" offset=".2568"/>
<stop stop-color="#131313" offset=".6703"/>
<stop stop-color="#131313" offset="1"/>
</radialGradient>
<radialGradient id="JAID_69_" cx="317.4" cy="431.74" r="74.754" gradientTransform="matrix(1.5868 0 0 1.5812 -415.32 -654.27)" gradientUnits="userSpaceOnUse">
<stop stop-color="#5D5E5E" offset="0"/>
<stop stop-color="#3B3D3D" offset=".254"/>
<stop stop-color="#040000" offset=".6703"/>
<stop stop-color="#040000" offset="1"/>
</radialGradient>
<radialGradient id="JAID_C_1" cx="55.373" cy="-89.904" r="3.8847" gradientTransform="matrix(1.9585 0 0 -1.9463 -18.753 -88.369)" gradientUnits="userSpaceOnUse">
<stop stop-color="#5D5E5E" offset="0"/>
<stop stop-color="#3B3D3D" offset=".254"/>
<stop stop-color="#040000" offset=".6703"/>
<stop stop-color="#040000" offset="1"/>
</radialGradient>
<linearGradient id="JAID_71_" x1="262.73" x2="331.96" y1="-272.34" y2="-272.34" gradientTransform="matrix(.97758 0 0 -.97148 -200.92 -125.68)" gradientUnits="userSpaceOnUse">
<stop stop-color="#fff" offset="0"/>
<stop stop-color="#E4E3E3" offset=".5"/>
<stop stop-color="#9D9B9A" offset="1"/>
<stop stop-color="#fff" offset="1"/>
</linearGradient>
</defs>
<g transform="matrix(.98442 0 0 .98579 1.4208 1.2216)" stroke-width=".97452">
<path d="m180 89.864c0 49.633-40.268 89.864-89.939 89.864-49.667 0-89.935-40.231-89.935-89.864 0-49.628 40.268-89.86 89.935-89.86 49.672 0 89.939 40.232 89.939 89.86z" fill="url(#JAID_A_1_)"/>
<path d="m170.42 51.774c0.11242 0.23413 0.22875 0.46437 0.33922 0.69849-0.1134-0.23413-0.22582-0.46825-0.33922-0.69849zm-0.46142-0.92874c0.11046 0.21956 0.22191 0.43814 0.32651 0.65575-0.11144-0.2215-0.21605-0.43717-0.32651-0.65575zm-0.49759-0.96954c0.10949 0.21373 0.22387 0.42551 0.33042 0.64118-0.10655-0.21567-0.22093-0.43134-0.33042-0.64118zm-159.25-0.38568c-6.5214 12.359-10.211 26.43-10.211 41.357 0 49.237 40.168 89.154 89.749 89.154 49.54 0 89.709-39.918 89.709-89.154 0-13.694-3.0989-26.663-8.6457-38.258-0.1789 0.72861-0.36855 1.4582-0.56309 2.1829 4.9964 11.005 7.7766 23.214 7.7766 36.076 0 48.451-39.52 87.727-88.273 87.727-48.794 0-88.313-39.272-88.313-87.727 0-9.5555 1.5358-18.756 4.3717-27.366-0.26883-0.69461-0.53376-1.3941-0.78695-2.0926 1.4214-4.0608 3.1498-8.0341 5.1861-11.9zm158.77-0.51877c0.10166 0.19332 0.21018 0.38568 0.30696 0.579-0.10069-0.19721-0.20627-0.38471-0.30696-0.579zm-158.36-0.25161c-0.13002 0.24481-0.26492 0.4974-0.39494 0.74318 0.13002-0.24967 0.26199-0.49448 0.39494-0.74318zm157.85-0.69169c0.0987 0.17681 0.19552 0.35556 0.29132 0.53626-0.0958-0.1807-0.18867-0.35945-0.29132-0.53626zm-157.43-0.06412c-0.087 0.15835-0.17499 0.31282-0.26199 0.47214 0.08407-0.15544 0.17108-0.31379 0.26199-0.47214zm0.40667-0.73638c-0.03715 0.068-0.0743 0.13309-0.1134 0.20498 0.04204-0.068 0.07625-0.13601 0.1134-0.20498zm156.54-0.06412c0.0802 0.14378 0.15935 0.28367 0.23951 0.42745-0.0802-0.14281-0.15348-0.28659-0.23951-0.42745zm-0.48977-0.85684c0.0508 0.08646 0.10069 0.17389 0.14762 0.2623-0.043-0.08355-0.0968-0.17584-0.14762-0.2623zm-0.49759-0.84422c0.0215 0.03303 0.0469 0.06995 0.0684 0.10492-0.0283-0.03886-0.0489-0.07189-0.0684-0.10492zm-0.53767-0.89959c0.0117 0.01846 0.0205 0.03886 0.0342 0.05732-0.0137-0.01846-0.0293-0.03886-0.0342-0.05732zm-44.87-37.125c0.0303 0.010686 0.0616 0.021373 0.087 0.034973-0.0254-0.012629-0.0567-0.023316-0.087-0.034973zm-62.573-0.41094c-0.10362 0.036916-0.21018 0.079661-0.31185 0.11269 0.09873-0.036916 0.20334-0.079661 0.31185-0.11269zm61.451-0.00389c0.13002 0.047602 0.25808 0.094234 0.39005 0.14378-0.1349-0.049545-0.26199-0.099091-0.39005-0.14378zm-60.217-0.43522c-0.25417 0.086462-0.50834 0.17875-0.7586 0.2691 0.24928-0.089376 0.50736-0.18167 0.7586-0.2691zm34.599-4.7865c8.5519 0.48088 17.062 2.1713 25.243 5.0896-7.9536-2.8426-16.425-4.597-25.243-5.0896zm-0.91502-0.044686c0.26199 0.010686 0.523 0.025258 0.78695 0.040802-0.26004-0.018458-0.52496-0.029144-0.78695-0.040802zm-1.0108-0.041774c0.22387 0.0068 0.4448 0.016515 0.67258 0.027201-0.22387-0.011658-0.4448-0.020401-0.67258-0.027201zm-1.0382-0.030116c0.19649 0.00389 0.39494 0.00777 0.59144 0.014572-0.19063-0.0068-0.39103-0.010686-0.59144-0.014572zm-1.0577-0.018458c0.1525 0 0.30598 0.00389 0.46142 0.00777-0.15152-0.00389-0.30598-0.00777-0.46142-0.00777zm-1.0714-0.0068c-10.295 0-20.183 1.7253-29.391 4.8924 9.4874-3.2554 19.433-4.8924 29.398-4.8924h0.23951z" fill="url(#JAID_1_)"/>
<path d="m170.24 54.775c-2.005 7.425-5.0482 14.658-9.1208 21.473 0.97171 4.7185 1.483 9.6002 1.483 14.603 0 39.985-32.618 72.399-72.858 72.399-40.28 0-72.892-32.413-72.892-72.399 0-2.3558 0.1134-4.6786 0.33336-6.9733-4.7823-6.3428-8.5773-13.213-11.378-20.392-2.836 8.6102-4.3727 17.81-4.3727 27.366 0 48.451 39.521 87.728 88.312 87.728 48.756 0 88.273-39.274 88.273-87.728-2e-3 -12.862-2.7812-25.075-7.7786-36.076z" fill="url(#JAID_2_)"/>
<path d="m170.75 52.469c0.0205 0.0408 0.0391 0.07966 0.0616 0.12046-0.0186-0.0408-0.0411-0.07966-0.0616-0.12046zm-0.47412-0.97148c0.0498 0.09229 0.0938 0.18264 0.13784 0.27299-0.0469-0.08646-0.0919-0.1807-0.13784-0.27299zm-0.49368-0.98022c0.0587 0.10492 0.11047 0.21955 0.16717 0.32447-0.0567-0.10589-0.11145-0.21567-0.16717-0.32447zm-0.5015-0.96565c0.0577 0.10492 0.11242 0.21372 0.17108 0.32447-0.0626-0.11172-0.1134-0.21664-0.17108-0.32447zm-159.06-0.08938c-0.0039 0.0097-0.0078 0.0204-0.01173 0.0272 0.0039-0.01069 0.0078-0.01457 0.01173-0.0272zm158.53-0.89765c0.0762 0.13601 0.14859 0.27104 0.22191 0.40705-0.0733-0.13601-0.14566-0.27007-0.22191-0.40705zm-157.99-0.12532c-0.05377 0.09618-0.09873 0.19041-0.1525 0.28367 0.05377-0.09326 0.10167-0.1875 0.1525-0.28367zm157.46-0.8481c0.0772 0.14572 0.16326 0.29339 0.23853 0.43717-0.0792-0.14766-0.1613-0.29144-0.23853-0.43717zm-156.9-0.15835c-0.09483 0.17681-0.19649 0.35362-0.29327 0.53431 0.09678-0.17972 0.19845-0.36042 0.29327-0.53431zm156.32-0.86462c0.11437 0.19915 0.22777 0.39248 0.34215 0.59552-0.10851-0.19915-0.22093-0.39636-0.34215-0.59552zm-0.57775-1.0006c0.14272 0.24481 0.28643 0.4906 0.43013 0.7393-0.1437-0.24578-0.28741-0.49448-0.43013-0.7393zm-0.57091-0.94719c0.17205 0.27784 0.33824 0.5586 0.50639 0.84227-0.16913-0.28367-0.33629-0.56443-0.50639-0.84227zm-44.813-37.147c18.753 7.0967 34.483 20.264 44.779 37.09-4.4607-7.2939-10.044-14.07-16.737-20.072-8.4727-7.5581-17.998-13.221-28.042-17.018zm-0.82703-0.30602c0.24244 0.090348 0.49368 0.1807 0.73612 0.27104-0.24244-0.090348-0.48977-0.1807-0.73612-0.27104zm-62.149-0.027201c-13.285 4.8477-25.605 12.893-35.722 24.078-4.5135 5.0099-8.3524 10.381-11.533 16.011 10.382-18.371 27.119-32.716 47.254-40.089zm61.388-0.24967c0.12611 0.046631 0.24733 0.086462 0.37442 0.13309-0.12709-0.04566-0.25222-0.086462-0.37442-0.13309zm-60.602-0.03303c-0.15934 0.055374-0.31478 0.11269-0.47413 0.17001 0.15544-0.060232 0.31478-0.11463 0.47413-0.17001zm0.87005-0.30602c-0.0391 0.011658-0.07625 0.022344-0.11144 0.036916 0.0391-0.014572 0.07234-0.021373 0.11144-0.036916zm34.361-4.7573c0.04595 0 0.08798 0.00291 0.12806 0.0068-0.03813-0.00291-0.08212-0.00291-0.12806-0.0068zm-1.1272-0.051488c0.11047 0.00389 0.22387 0.0068 0.3402 0.014572-0.11047-0.00777-0.22289-0.010686-0.3402-0.014572zm-1.1154-0.042741c0.14761 0.00389 0.29718 0.00777 0.4448 0.011658-0.14859-0.00389-0.29718-0.00777-0.4448-0.011658zm-1.1897-0.025259c0.20236 0 0.39885 0.00389 0.59632 0.010686-0.20236-0.00291-0.39396-0.0068-0.59632-0.010686zm-1.2865-0.010686c0.2747 0 0.55038 0 0.82508 0.00291-0.27861-0.00291-0.55038-0.00291-0.82508-0.00291z" fill="#ececeb"/>
<path d="m89.756 1.6593c-9.9645 0-19.91 1.6369-29.398 4.8924-0.0391 0.011658-0.07625 0.022344-0.11144 0.036916-0.25026 0.086462-0.50834 0.17875-0.7586 0.2691-0.15935 0.055374-0.31869 0.11269-0.47413 0.17001-0.10362 0.036916-0.21311 0.079661-0.31185 0.11269-20.135 7.3774-36.872 21.718-47.254 40.089-0.0391 0.068-0.07625 0.13698-0.11536 0.20498-0.09483 0.17292-0.19649 0.35362-0.29327 0.53431-0.087 0.15835-0.17792 0.31282-0.26101 0.47117-0.05377 0.09618-0.09874 0.19041-0.1525 0.28367-0.13393 0.24481-0.26492 0.49351-0.39494 0.74318-0.0039 0.01263-0.0068 0.01651-0.01075 0.0272-2.0363 3.8616-3.7656 7.8398-5.1841 11.899 0.25026 0.70238 0.51518 1.397 0.78402 2.0926 11.569-35.078 44.763-60.395 83.94-60.395 35.824 0 66.662 21.204 80.498 51.686 0.19747-0.72472 0.38712-1.4533 0.56211-2.1829-0.0215-0.0408-0.042-0.07966-0.0606-0.11949-0.11145-0.23413-0.22778-0.46437-0.3402-0.6985-0.045-0.09035-0.087-0.1807-0.13686-0.27298-0.10558-0.21761-0.21703-0.43717-0.32651-0.65575-0.0577-0.10492-0.11047-0.21956-0.16815-0.32448-0.1046-0.21567-0.22191-0.43134-0.33042-0.64215-0.0577-0.11075-0.11242-0.21956-0.17108-0.32447-0.0987-0.19332-0.20627-0.38471-0.30793-0.579-0.0704-0.13406-0.14273-0.27104-0.22094-0.40705-0.0948-0.17681-0.19258-0.35362-0.29132-0.53626-0.0792-0.14378-0.16325-0.29533-0.23853-0.43717-0.0802-0.14378-0.16032-0.28367-0.2395-0.42745-0.11536-0.19915-0.22778-0.39248-0.34509-0.59552-0.0479-0.08646-0.0978-0.17292-0.14664-0.2623-0.14272-0.2487-0.2874-0.49351-0.43111-0.7393-0.0215-0.03303-0.0459-0.07189-0.0684-0.10492-0.16619-0.28367-0.33433-0.56443-0.50443-0.84227-0.0127-0.01457-0.0235-0.03886-0.0362-0.05732-10.295-16.826-26.03-29.99-44.778-37.09-0.0284-0.012629-0.0596-0.023315-0.087-0.034973-0.24341-0.090348-0.49368-0.1807-0.73612-0.27104-0.13001-0.049546-0.26003-0.094234-0.39103-0.14378-0.12024-0.04566-0.24244-0.086462-0.37343-0.13309-8.1784-2.9144-16.692-4.6087-25.242-5.0896-0.04204-0.00389-0.08407-0.00389-0.12806-0.00777-0.26492-0.014572-0.52496-0.025259-0.78793-0.040802-0.11438-0.00389-0.22778-0.00777-0.33922-0.014572-0.2268-0.00777-0.44871-0.020401-0.67258-0.027201-0.14664-0.00389-0.29718-0.00777-0.4448-0.011658-0.19649-0.0068-0.39494-0.010686-0.59144-0.014572-0.19747-0.00389-0.39396-0.0068-0.59632-0.010686-0.15544-0.00389-0.30598-0.00777-0.46337-0.00777-0.27274 0-0.55038-0.00389-0.8241-0.00389-0.08407-0.00583-0.1613-0.00583-0.2444-0.00583z" fill="url(#JAID_3_)"/>
<path d="m89.753 3.0854c-39.178 0-72.371 25.32-83.941 60.395 2.8008 7.1841 6.5957 14.05 11.378 20.393 3.5291-36.747 34.649-65.464 72.563-65.464 35.211 0 64.584 24.816 71.377 57.835 4.0706-6.811 7.1138-14.045 9.1189-21.474-13.839-30.481-44.676-51.686-80.496-51.686z" fill="url(#JAID_4_)"/>
<path d="m18.325 90.845c0-39.209 31.968-70.977 71.427-70.977 39.42 0 71.387 31.768 71.387 70.977 0 39.175-31.967 70.942-71.387 70.942-39.459 0-71.427-31.764-71.427-70.942zm71.428-72.437c-37.91 0-69.033 28.718-72.563 65.464-0.22093 2.2946-0.33335 4.6174-0.33335 6.9733 0 39.985 32.617 72.398 72.892 72.398 40.24 0 72.856-32.412 72.856-72.398 0-5.0022-0.50932-9.8877-1.481-14.602-6.7873-33.019-36.165-57.835-71.371-57.835z" fill="url(#JAID_5_)"/>
<path d="m129.67 67.621c0.3705 0.62272 0.72341 1.2571 1.0616 1.9002l2.2416-1.1405c-1.0773-0.26036-2.179-0.5178-3.3032-0.7597zm-79.838-0.10492c-1.1887 0.25647-2.3481 0.52168-3.4948 0.79661l2.3745 1.2037c0.35291-0.67129 0.72928-1.3406 1.1203-2.0003zm42.884-3.8966c5.188 0.55666 9.9518 2.553 13.872 5.5802l3.2466-2.6949c-0.96683-0.79273-1.9816-1.5359-3.0461-2.2121-4.5467-0.37499-9.2596-0.60135-14.072-0.67324zm-69.544 13.501c6.3944-30.713 33.745-53.818 66.571-53.818 32.888 0 60.31 23.239 66.562 54.091-5.4705-3.4099-12.973-6.3651-21.915-8.652l-3.2231 1.6331c3.0882 6.166 4.8283 13.115 4.8283 20.474 0 12.673-5.1949 24.19-13.574 32.483h-0.64912v-0.65089c8.1716-8.1507 13.264-19.399 13.264-31.832 0-0.05732-4e-3 -0.11269-4e-3 -0.17195h-13.735c0-6.8586-2.2357-13.209-5.9955-18.373l-2.7499 3.2282c2.9709 4.3717 4.711 9.64 4.711 15.316 0 15.084-12.343 27.349-27.523 27.349-15.214 0-27.557-12.265-27.557-27.349 0-14.142 10.795-25.785 24.635-27.235-4.8283 0.0612-9.547 0.28076-14.112 0.63729-1.92 1.2241-3.6933 2.6434-5.2956 4.2357-5.7091 5.6734-9.2655 13.523-9.2655 22.187h-13.741c0 0.05732-0.0039 0.11366-0.0039 0.17098 0 12.432 5.0932 23.682 13.267 31.832v0.65089h-0.65107c-8.3749-8.2916-13.573-19.809-13.573-32.482 0-7.358 1.7401-14.308 4.8283-20.474l-3.357-1.7049c-8.8188 2.2422-16.249 5.1226-21.742 8.4558zm66.572-54.397c-38.981 0-70.602 31.021-71.389 69.551 0-0.47408-0.0391-0.95108-0.0391-1.4271 0 39.175 31.968 70.942 71.427 70.942 39.42 0 71.387-31.764 71.387-70.942 0 0.47505-0.0362 0.95108-0.0362 1.4271-0.75368-38.53-32.408-69.551-71.35-69.551z" fill="url(#JAID_6_)"/>
<path d="m89.753 22.723c38.941 0 70.602 31.021 71.351 69.551 0-0.47408 0.0362-0.95108 0.0362-1.4271 0-39.209-31.967-70.977-71.387-70.977-39.46 0-71.427 31.768-71.427 70.977 0 0.47505 0.0391 0.95108 0.0391 1.4271 0.78497-38.53 32.406-69.551 71.388-69.551z" fill="#040000"/>
<path d="m108.27 58.83c1.0587 0.67421 2.0774 1.4154 3.0452 2.2121l2.0832-1.7292c-1.6873-0.18264-3.3961-0.34488-5.1284-0.48283z" fill="url(#JAID_7_)"/>
<path d="m112.06 112.87 9.7807 9.7168c8.2175-8.1614 13.3-19.442 13.3-31.9h-13.838c0 8.6598-3.53 16.504-9.243 22.183z" fill="url(#JAID_8_)"/>
<path d="m72.718 64.253c-2.9562 0.23996-5.8498 0.53237-8.6702 0.88502l3.3775 3.3516c1.5993-1.5923 3.3727-3.0155 5.2926-4.2366z" fill="url(#JAID_9_)"/>
<path d="m64.048 65.138c-4.5135 0.56249-8.8236 1.2726-12.901 2.111-0.63445 1.0191-1.2259 2.0605-1.7812 3.1321l0.0078 0.01652-0.01857 0.0039c-3.1312 6.0883-4.9133 12.983-4.9397 20.279h13.741c0-8.6627 3.5594-16.51 9.2655-22.186z" fill="url(#JAID_10_)"/>
<path d="m67.415 112.86c-5.7091-5.6754-9.2469-13.519-9.2469-22.179h-13.84c0 12.457 5.0824 23.738 13.3 31.9z" fill="url(#JAID_11_)"/>
</g>
<g transform="matrix(.97758 0 0 .97148 -7.6955 -8.1682)" fill="#fff">
<polygon points="146.5 102.4 163.54 102.4 164.03 101.9 163.54 101.41 146.5 101.41 146.01 101.9"/>
<polygon points="35.782 102.4 52.825 102.4 53.314 101.9 52.825 101.41 35.782 101.41 35.292 101.9"/>
<polygon points="146 95.066 153.13 93.936 153.54 93.372 152.98 92.964 145.84 94.095 145.44 94.655"/>
<polygon points="46.351 110.85 53.478 109.72 53.885 109.16 53.326 108.75 46.199 109.88 45.787 110.44"/>
<polygon points="144.36 87.9 151.22 85.67 151.54 85.048 150.92 84.733 144.05 86.968 143.74 87.587"/>
<polygon points="48.407 119.08 55.272 116.85 55.587 116.22 54.971 115.91 48.104 118.15 47.789 118.76"/>
<polygon points="141.62 81.077 148.05 77.79 148.26 77.124 147.6 76.916 141.16 80.202 140.95 80.868"/>
<polygon points="51.726 126.89 58.156 123.61 58.371 122.95 57.71 122.73 51.274 126.01 51.064 126.67"/>
<polygon points="137.83 74.781 144.69 69.536 144.76 68.836 144.06 68.766 137.24 73.977 137.17 74.676"/>
<polygon points="56.221 134.07 62.062 129.83 62.171 129.15 61.482 129.04 55.642 133.28 55.534 133.97"/>
<polygon points="54.912 147.35 66.892 135.37 66.892 134.68 66.192 134.68 54.211 146.66 54.211 147.35"/>
<polygon points="127.59 64.29 131.82 58.45 131.72 57.784 131.05 57.89 126.78 63.73 126.89 64.43"/>
<polygon points="121.37 60.408 124.65 53.972 124.44 53.308 123.78 53.518 120.49 59.952 120.7 60.616"/>
<polygon points="114.61 57.504 116.85 50.649 116.5 50.021 115.9 50.334 113.67 57.224 113.98 57.819"/>
<polygon points="107.48 55.721 108.6 48.586 108.21 48.027 107.62 48.446 106.5 55.581 106.92 56.14"/>
<polygon points="100.17 55.057 100.17 38.023 99.645 37.534 99.152 38.023 99.192 55.057 99.683 55.546"/>
<polygon points="92.823 55.581 91.704 48.446 91.144 48.027 90.724 48.586 91.844 55.721 92.403 56.14"/>
<polygon points="85.654 57.224 83.416 50.334 82.821 50.021 82.51 50.649 84.709 57.504 85.339 57.819"/>
<polygon points="78.833 59.952 75.55 53.518 74.917 53.308 74.672 53.972 77.96 60.408 78.628 60.616"/>
<polygon points="72.539 63.73 68.272 57.89 67.611 57.784 67.501 58.45 71.734 64.29 72.433 64.394"/>
<polygon points="66.874 68.451 54.912 56.455 54.211 56.455 54.211 57.155 66.208 69.151 66.874 69.151"/>
<polygon points="145.11 146.66 133.12 134.68 132.43 134.68 132.43 135.37 144.41 147.35 145.11 147.35"/>
<polygon points="62.046 73.977 56.206 69.745 55.542 69.85 55.646 70.516 61.486 74.781 62.187 74.676"/>
<polygon points="143.68 133.28 137.84 129.04 137.15 129.15 137.26 129.83 143.1 134.07 143.79 133.97"/>
<polygon points="58.164 80.202 51.73 76.916 51.064 77.124 51.274 77.79 57.71 81.077 58.378 80.868"/>
<polygon points="148.05 126.01 141.62 122.73 140.96 122.95 141.17 123.61 147.6 126.89 148.26 126.67"/>
<polygon points="55.272 86.964 48.407 84.733 47.789 85.048 48.104 85.67 54.971 87.896 55.587 87.583"/>
<polygon points="151.22 118.15 144.36 115.91 143.74 116.22 144.05 116.85 150.92 119.08 151.54 118.76"/>
<polygon points="53.478 94.095 46.351 92.964 45.787 93.372 46.199 93.936 53.326 95.066 53.885 94.659"/>
<polygon points="153.12 109.88 146 108.75 145.44 109.16 145.84 109.72 152.97 110.85 153.53 110.44"/>
<path d="m66.874 134.69c-8.36-8.389-13.571-19.969-13.571-32.766 0-12.802 5.21-24.413 13.605-32.771 8.358-8.394 19.974-13.604 32.775-13.604 12.799 0 24.372 5.21 32.771 13.604 8.358 8.358 13.567 19.969 13.567 32.771 0 12.797-5.209 24.377-13.567 32.766v0.67h0.664c8.569-8.534 13.884-20.391 13.884-33.436 0-26.16-21.191-47.354-47.318-47.354-26.161 0-47.359 21.194-47.359 47.354 0 13.045 5.316 24.9 13.884 33.436h0.666z"/>
</g>
<g stroke-width=".97452">
<path d="m89.753 45.794-0.03715 13.523c-6.2458 0-12.085 1.8079-16.997 4.9361 4.5653-0.36139 9.2802-0.57706 14.112-0.63729 0.96096-0.09812 1.9346-0.15544 2.922-0.15544 1.003 0 1.9943 0.05732 2.9718 0.15835 4.8195 0.07189 9.5255 0.29922 14.076 0.67324-4.9231-3.1486-10.781-4.9749-17.048-4.9749zm31.427 11.308 1.5954 1.5359 2.1624 2.3558c0.67159 0.78204 1.3188 1.5777 1.9336 2.4054l6.2643-4.7573 0.68333 0.068-0.0684 0.68004-6.3064 4.7952c0.79771 1.1094 1.5446 2.2597 2.2377 3.441 1.1213 0.2419 2.223 0.49934 3.3013 0.76261l3.6053-1.8264 0.64912 0.20304-0.2092 0.64701-2.6287 1.3358c8.9419 2.2878 16.442 5.2421 21.917 8.653-6.2526-30.852-33.676-54.091-66.563-54.091-32.827 0-60.178 23.105-66.567 53.818 5.492-3.3331 12.923-6.2136 21.745-8.4519l-2.4928-1.2649-0.2092-0.64701 0.65107-0.20304 3.4724 1.7623c1.1457-0.27493 2.3051-0.54403 3.4948-0.79564 0.67844-1.1395 1.4009-2.2529 2.1683-3.3293l-5.3034-3.8548-0.10167-0.64506 0.64911-0.10298 5.3219 3.8364c1.2581-1.6797 2.6248-3.27 4.099-4.7632l-11.373-11.304v-0.68004h0.68431l11.354 11.318c1.5065-1.4689 3.1126-2.8348 4.8136-4.088l-3.8585-5.2887 0.10167-0.64506 0.64911 0.10103 3.879 5.2732c1.7069-1.2076 3.4988-2.2985 5.364-3.27l-2.9865-5.8104 0.23951-0.64506 0.61588 0.20401 2.9865 5.8172c1.8721-0.92874 3.8135-1.7292 5.8195-2.4015l-2.0011-6.201 0.30403-0.61203 0.58068 0.30602 2.0295 6.2136c1.9904-0.6198 4.0374-1.1075 6.1343-1.4582l-1.0225-6.4516 0.40961-0.54403 0.54744 0.40705 1.0186 6.4399c2.0588-0.30213 4.1645-0.46437 6.2985-0.48671l-0.03519-16.077 0.48097-0.47602 0.51518 0.47602v16.08c2.1282 0.02234 4.2163 0.18458 6.2634 0.4838l1.0186-6.437 0.57677-0.40705 0.38126 0.54403-1.0216 6.4477c2.0998 0.3507 4.1449 0.83936 6.1343 1.4582l2.0275-6.2068 0.58264-0.30602 0.34215 0.61203-2.0373 6.1932c2.005 0.67324 3.9484 1.4766 5.8176 2.4025l2.9865-5.8104 0.65303-0.20401 0.20431 0.647-2.9846 5.8046c1.8672 0.9744 3.661 2.0663 5.365 3.2739l3.8751-5.2703 0.65107-0.10103 0.10167 0.64506-3.8566 5.2849c1.35 0.9812 2.6424 2.045 3.8693 3.1826" fill="url(#JAID_12_)"/>
<path d="m89.753 63.46c-0.98736 0-1.961 0.05343-2.922 0.15544 0.89937-0.01166 1.8085-0.01457 2.7118-0.01457 1.0646 0 2.1282 0.0068 3.182 0.02137-0.97758-0.10783-1.9728-0.16224-2.9718-0.16224z" fill="url(#JAID_13_)"/>
<path d="m89.753 45.794c2.396 0 4.751 0.1875 7.0493 0.54694l0.02151 0.02914 0.03128-0.02137c2.356 0.37013 4.6543 0.92485 6.8714 1.6418l8e-3 0.01069 0.0156-0.0068c2.2621 0.73152 4.449 1.6389 6.541 2.6988l9e-3 0.02526 0.0293-0.0068c2.1077 1.0725 4.1186 2.3073 6.016 3.6809l8e-3 0.03109 0.0293-0.0087c1.4136 1.023 2.7714 2.1285 4.0511 3.303l-8.501 7.0568c-1.6834-0.1807-3.3981-0.34293-5.1294-0.48282-4.9226-3.1486-10.78-4.975-17.048-4.975v-13.523zm30.679 11.931-8.503 7.0549c2.6375 0.41482 13.994 2.0498 16.464 2.5676-1.219-1.9779-2.5867-3.8548-4.0873-5.6113z" fill="url(#JAID_14_)"/>
<path d="m89.753 45.794c-2.4176 0-4.7823 0.1875-7.0933 0.55083l-0.01857 0.02526-0.02542-0.01846c-2.3599 0.37402-4.6582 0.92971-6.8802 1.6467l-0.0039 0.0029h-0.0039c-2.2719 0.73152-4.4607 1.6428-6.5576 2.7027l-0.0039 0.01457-0.01857-0.0029c-4.2114 2.145-8.0396 4.9273-11.353 8.2119l6.2526 6.2097c2.8193-0.35168 5.713-0.64506 8.6702-0.88502 4.9114-3.1243 10.751-4.9361 16.997-4.9361z" fill="url(#JAID_15_)"/>
<path d="m57.796 58.928c-0.02542 0.02914-0.05768 0.05732-0.08309 0.08257-1.6717 1.6573-3.2182 3.4507-4.6191 5.3529l0.0039 0.01166h-0.01466c-0.6804 0.92874-1.3295 1.8837-1.9385 2.8639 4.0775-0.83644 8.3915-1.5466 12.901-2.1081z" fill="url(#JAID_16_)"/>
</g>
<g transform="matrix(.97758 0 0 .97148 -7.6955 -8.1682)" fill="#fff">
<path d="m147.6 76.916-3.688 1.88c0.489 0.12 0.972 0.245 1.448 0.366l2.688-1.377 0.216-0.664z"/>
<path d="m144.06 68.766-6.408 4.897c0.197 0.268 0.396 0.535 0.586 0.809l6.451-4.936 0.07-0.7z"/>
<path d="m120.69 60.59 0.011 0.026 0.03-7e-3c-0.011-8e-3 -0.027-0.012-0.041-0.019zm3.755-7.282-0.668 0.21-3.055 5.981c0.297 0.146 0.586 0.294 0.879 0.446l3.053-5.977z"/>
<path d="m113.98 57.808 0.01 0.011 0.015-7e-3c-9e-3 0-0.018-4e-3 -0.025-4e-3zm2.53-7.787-0.596 0.313-2.074 6.389c0.315 0.099 0.625 0.199 0.937 0.304l2.084-6.377z"/>
<path d="m106.9 56.11 0.022 0.03 0.032-0.022c-0.017 0-0.036-4e-3 -0.054-8e-3zm1.316-8.083-0.59 0.419-1.042 6.626c0.327 0.045 0.653 0.097 0.976 0.155l1.047-6.637z"/>
<path d="m99.683 55.546m-0.038-18.012-0.492 0.49 0.036 16.551c0.167 0 0.327-3e-3 0.494-3e-3 0.163 0 0.322 3e-3 0.489 3e-3v-16.552z"/>
<path d="m92.422 56.114c-0.015 4e-3 -0.03 4e-3 -0.045 7e-3l0.026 0.019zm-1.278-8.087-0.419 0.56 1.046 6.641c0.322-0.055 0.649-0.104 0.975-0.155l-1.042-6.63z"/>
<path d="m85.343 57.816h-8e-3zm-2.522-7.795-0.311 0.628 2.047 6.385c0.311-0.104 0.623-0.205 0.934-0.304l-2.076-6.396z"/>
<path d="m78.632 60.601c-8e-3 4e-3 -0.015 8e-3 -0.023 0.012l0.019 3e-3zm-3.715-7.293-0.245 0.664 3.055 5.98c0.287-0.152 0.583-0.304 0.879-0.446l-3.055-5.988z"/>
<path d="m67.611 57.784-0.104 0.666 3.947 5.443c0.256-0.195 0.526-0.389 0.79-0.575l-3.968-5.429z"/>
<path d="m54.912 56.455h-0.7v0.7l11.631 11.633c0.226-0.228 0.456-0.457 0.683-0.683z"/>
<path d="m62.183 74.665c-3e-3 4e-3 -7e-3 8e-3 -0.011 0.015h0.015zm-5.977-4.92-0.665 0.104 0.104 0.666 5.425 3.967c0.19-0.266 0.385-0.529 0.575-0.789z"/>
<path d="m51.73 76.916-0.666 0.208 0.214 0.666 2.55 1.302c0.477-0.122 0.962-0.245 1.454-0.362z"/>
<path d="m135.68 71.187-0.647 0.765c1.537 1.809 2.933 3.74 4.18 5.776 0.443 0.093 0.886 0.186 1.32 0.283-0.709-1.216-1.473-2.4-2.288-3.542-0.193-0.273-0.394-0.541-0.587-0.808-0.632-0.846-1.292-1.669-1.978-2.474zm-35.992-16.62c-0.167 0-0.327 4e-3 -0.494 4e-3 -2.188 0.022-4.337 0.189-6.443 0.501-0.326 0.045-0.653 0.097-0.975 0.155-2.145 0.36-4.239 0.861-6.275 1.499-0.312 0.099-0.623 0.199-0.934 0.304-2.051 0.692-4.038 1.52-5.953 2.472-0.292 0.143-0.588 0.294-0.878 0.446-1.909 0.998-3.742 2.122-5.487 3.366-0.264 0.19-0.533 0.383-0.79 0.575-1.736 1.29-3.379 2.696-4.924 4.208-0.228 0.226-0.457 0.454-0.683 0.683-1.508 1.539-2.907 3.17-4.193 4.905-0.193 0.26-0.389 0.524-0.575 0.79-0.786 1.106-1.527 2.252-2.218 3.427 0.442-0.093 0.89-0.186 1.336-0.281 0.622-1.009 1.286-1.992 1.983-2.948 3e-3 -4e-3 7e-3 -8e-3 0.011-0.015 1.435-1.958 3.011-3.805 4.725-5.51 0.032-0.032 0.063-0.059 0.085-0.085 3.389-3.381 7.307-6.245 11.612-8.453 8e-3 -4e-3 0.015-8e-3 0.023-0.012 2.144-1.095 4.383-2.028 6.708-2.781h7e-3c2.273-0.738 4.621-1.31 7.038-1.695 0.015 0 0.031-3e-3 0.046-7e-3 2.364-0.374 4.785-0.567 7.255-0.567 2.453 0 4.861 0.193 7.212 0.563 0.02 4e-3 0.037 8e-3 0.056 8e-3 2.41 0.381 4.761 0.952 7.03 1.69 8e-3 0 0.015 4e-3 0.021 4e-3 2.316 0.753 4.551 1.687 6.692 2.778 0.012 7e-3 0.026 0.011 0.038 0.019 2.156 1.104 4.212 2.375 6.154 3.789 0.013 8e-3 0.026 0.015 0.041 0.023 1.442 1.053 2.832 2.191 4.142 3.4l0.765-0.639c-1.254-1.167-2.576-2.266-3.955-3.292-0.261-0.196-0.523-0.389-0.787-0.575-1.746-1.245-3.582-2.368-5.492-3.37-0.289-0.152-0.578-0.304-0.879-0.446-1.912-0.953-3.9-1.78-5.949-2.473-0.311-0.104-0.62-0.205-0.937-0.304-2.036-0.637-4.131-1.138-6.276-1.499-0.322-0.055-0.648-0.106-0.976-0.155-2.095-0.308-4.235-0.475-6.408-0.497-0.177-1e-3 -0.336-5e-3 -0.499-5e-3z"/>
</g>
<polygon transform="matrix(.97758 0 0 .97148 -7.6955 -8.1682)" points="" fill="url(#JAID_21_)"/>
<polygon transform="matrix(.97758 0 0 .97148 -7.6955 -8.1682)" points="182.7 98.879 182.7 98.882" fill="url(#JAID_22_)"/>
<polygon transform="matrix(.97758 0 0 .97148 -7.6955 -8.1682)" points="16.386 104.87 16.382 104.87" fill="url(#JAID_26_)"/>
<polygon transform="matrix(.97758 0 0 .97148 -7.6955 -8.1682)" points="" fill="url(#JAID_27_)"/>
<polygon transform="matrix(.97758 0 0 .97148 -7.6955 -8.1682)" points="17.543 98.879 17.543 98.882" fill="url(#JAID_28_)"/>
<polygon transform="matrix(.97758 0 0 .97148 -7.6955 -8.1682)" points="96.624 183.86 96.616 183.86" fill="url(#JAID_32_)"/>
<polygon transform="matrix(.97758 0 0 .97148 -7.6955 -8.1682)" points="96.624 185.02 96.616 185.02" fill="url(#JAID_33_)"/>
<polygon transform="matrix(.97758 0 0 .97148 -7.6955 -8.1682)" points="96.616 18.711 96.624 18.711 96.616 18.708" fill="url(#JAID_38_)"/>
<polygon transform="matrix(.97758 0 0 .97148 -7.6955 -8.1682)" points="96.624 19.869 96.616 19.869" fill="url(#JAID_39_)"/>
<polygon transform="matrix(.97758 0 0 .97148 -7.6955 -8.1682)" points="102.61 19.869 102.6 19.869" fill="url(#JAID_40_)"/>
<polygon transform="matrix(.97758 0 0 .97148 -7.6955 -8.1682)" points="160.45 45.228 160.45 45.232" fill="url(#JAID_45_)"/>
<polygon transform="matrix(.97758 0 0 .97148 -7.6955 -8.1682)" points="156.21 40.993 156.22 40.997" fill="url(#JAID_46_)"/>
<polygon transform="matrix(.97758 0 0 .97148 -7.6955 -8.1682)" points="42.854 162.83 42.846 162.83 42.854 162.84" fill="url(#JAID_50_)"/>
<polygon transform="matrix(.97758 0 0 .97148 -7.6955 -8.1682)" points="39.434 157.78 39.438 157.78" fill="url(#JAID_52_)"/>
<polygon transform="matrix(.97758 0 0 .97148 -7.6955 -8.1682)" points="155.44 161.96 155.44 161.95" fill="url(#JAID_56_)"/>
<polygon transform="matrix(.97758 0 0 .97148 -7.6955 -8.1682)" points="156.27 162.77 156.26 162.78" fill="url(#JAID_57_)"/>
<polygon transform="matrix(.97758 0 0 .97148 -7.6955 -8.1682)" points="160.5 158.54 160.49 158.54" fill="url(#JAID_58_)"/>
<polygon transform="matrix(.97758 0 0 .97148 -7.6955 -8.1682)" points="38.664 45.171 38.652 45.171" fill="url(#JAID_62_)"/>
<polygon transform="matrix(.97758 0 0 .97148 -7.6955 -8.1682)" points="39.48 45.991 39.476 45.995" fill="url(#JAID_63_)"/>
<g stroke-width=".97452">
<path d="m35.037 32.4" fill="url(#JAID_64_)"/>
<path d="m115.47 65.138c4.5135 0.56249 8.8227 1.2726 12.901 2.111 0.63249 1.0191 1.2259 2.0605 1.7792 3.1321l-8e-3 0.01652 0.0205 0.0039c3.1273 6.0883 4.9104 12.983 4.9378 20.279h-13.743c0-8.6627-3.5594-16.51-9.2655-22.186z" fill="url(#JAID_65_)"/>
<path d="m106.8 64.253c2.9562 0.23996 5.8489 0.53237 8.6692 0.88502l-3.3775 3.3516c-1.6022-1.5923-3.3717-3.0155-5.2916-4.2366z" fill="url(#JAID_66_)"/>
<ellipse cx="89.733" cy="90.35" rx="31.721" ry="31.523" fill="url(#JAID_67_)"/>
<ellipse cx="89.729" cy="90.35" rx="28.492" ry="28.314" fill="url(#JAID_68_)"/>
<ellipse cx="89.733" cy="90.35" rx="26.592" ry="26.426" fill="url(#JAID_69_)"/>
</g>
<g id="JAID_P" transform="matrix(.97758 0 0 .97148 -7.6955 -8.1682)">
<linearGradient id="JAID_70_" x1="-20.134" x2="6.9331" y1="522.16" y2="559.41" gradientTransform="matrix(-.9867 .1624 .1624 .9867 -8.88 -413.52)" gradientUnits="userSpaceOnUse">
<stop stop-color="#fff" offset="0">
<animate id="JAID_A" attributeName="stop-color" attributeType="XML" begin="0s" dur="1s" from="white" to="red"/>
</stop>
<stop stop-color="#12f900" offset="1"/>
</linearGradient>
<path d="m79.498 119.42-7.761 9.336-3.201 3.844-0.229 0.272-2.473 2.966 2.938-2.49 0.337-0.289 8.28-7.014 0.567-0.48 6.481-5.546m-5e-3 -1e-3 1.569-1.33 2.454-2.083 0.68-0.578 15.208-12.891c1.539-1.563 1.649-4.012 0.346-5.703-0.117-0.151-0.245-0.296-0.381-0.433-0.861-0.852-1.979-1.275-3.095-1.271-1.112 8e-3 -2.217 0.443-3.054 1.308l-18.664 22.382" fill="url(#JAID_70_)"/>
</g>
<ellipse id="JAID_C" cx="89.733" cy="90.35" rx="3.9817" ry="3.9568" fill="url(#JAID_C_1)" stroke-width=".97452"/>
<path d="m133.53 46.853-11.353 11.318c0.22191 0.21956 0.44675 0.44202 0.66769 0.66352l11.37-11.301v-0.68004z" fill="#fff" stroke-width=".97452"/>
<text transform="matrix(.62463 .78003 -.78493 .62074 0 0)" x="131.95361" y="48.349083" fill="#c8ccc8" font-family="TimesNewRomanPSMT" font-size="9.7456px" stroke-width=".97456"><tspan id="JAID_MR0" text-align="end" text-anchor="end">0</tspan></text>
<text id="JAID_MR1" transform="matrix(.52695 -.84825 .85358 .52367 0 0)" x="-42.657925" y="185.90523" fill="#c8ccc8" font-family="TimesNewRomanPSMT" font-size="9.7451px" stroke-width=".97451">100</text>
<rect id="JAID_VB" x="55.92" y="128.82" width="67.677" height="20.149" fill="url(#JAID_71_)" stroke="#000" stroke-width=".97452"/>
<text id="JAID_V" transform="scale(1.0464 .95567)" x="85.405067" y="148.36266" dominant-baseline="middle" font-family="TimesNewRomanPSMT" font-size="18.298px" stroke-width="1.0165" text-anchor="middle">0</text>
</svg>
