<svg version="1.1" viewBox="0 0 180 180" xmlns="http://www.w3.org/2000/svg">
<g transform="matrix(.93368 0 0 .93387 -5.2066 -5.6656)">
<linearGradient id="JAID_A_1_" x1="152.12" x2="46.154" y1="10.44" y2="194.27" gradientTransform="matrix(.9994 .0346 -.0346 .9994 6.4963 -3.1192)" gradientUnits="userSpaceOnUse">
<stop stop-color="#8693C9" offset=".1697"/>
<stop stop-color="#fff" offset=".3515"/>
<stop stop-color="#A6A7A7" offset=".5576"/>
<stop stop-color="#868586" offset=".6606"/>
<stop stop-color="#fff" offset=".7273"/>
<stop stop-color="#A0B4DD" offset="1"/>
</linearGradient>
<circle cx="102.06" cy="102.55" r="94.999" fill="url(#JAID_A_1_)"/>
<circle cx="102.06" cy="102.55" r="91.538"/>
<linearGradient id="JAID_1_" x1="10.455" x2="187.88" y1="76.319" y2="76.319" gradientTransform="matrix(.9994 .0346 -.0346 .9994 6.4963 -3.1192)" gradientUnits="userSpaceOnUse">
<stop stop-color="#1D4FA1" offset="0"/>
<stop stop-color="#1B4589" offset=".0677"/>
<stop stop-color="#13305A" offset=".213"/>
<stop stop-color="#061C35" offset=".3581"/>
<stop stop-color="#000718" offset=".4996"/>
<stop offset=".6368"/>
<stop offset=".7684"/>
<stop offset=".8921"/>
<stop offset="1"/>
</linearGradient>
<path d="m13.405 99.486c1.695-48.966 42.762-87.286 91.727-85.592s87.286 42.762 85.594 91.728c-1.695 48.964-179.02 42.827-177.32-6.136z" fill="url(#JAID_1_)"/>
<g id="JAID_P">
<radialGradient id="JAID_2_" cx="155.38" cy="85.865" r="45.939" gradientTransform="matrix(-1.0046 -.132 .132 -1.0046 247.13 208.27)" gradientUnits="userSpaceOnUse">
<stop offset="0"/>
<stop stop-color="#12f900" offset="1">
<animate id="JAID_A" attributeName="stop-color" attributeType="XML" begin="0s" dur="1s" from="#12f900" to="#E60012"/>
</stop>
</radialGradient>
<path d="m41.964 116.59 49.693-5.102c4.245-0.437 8.467-1.108 12.649-1.993-2.29-4.325-2.831-9.264-3.852-14.153-4.082 0.913-8.122 2.006-12.096 3.29l-46.965 15.18c-1.929 0.624-1.445 2.983 0.571 2.778z" fill="url(#JAID_2_)"/>
</g>
<linearGradient id="JAID_3_" x1="89.402" x2="108.96" y1="102.32" y2="102.32" gradientTransform="matrix(.9994 .0346 -.0346 .9994 6.4963 -3.1192)" gradientUnits="userSpaceOnUse">
<stop stop-color="#fff" offset=".0182"/>
<stop stop-color="#FDFDFD" offset=".2277"/>
<stop stop-color="#F3F2F3" offset=".3607"/>
<stop stop-color="#E2DFE1" offset=".4723"/>
<stop stop-color="#C9C5C9" offset=".5722"/>
<stop stop-color="#ACA5AC" offset=".6642"/>
<stop stop-color="#8A818B" offset=".7505"/>
<stop stop-color="#645C6A" offset=".8323"/>
<stop stop-color="#3C394C" offset=".9105"/>
<stop stop-color="#0F1D32" offset=".9833"/>
<stop stop-color="#04162C" offset="1"/>
</linearGradient>
<path d="m92.305 102.22c0.187-5.396 4.711-9.619 10.106-9.432 5.401 0.187 9.627 4.713 9.441 10.109-0.188 5.4-4.716 9.625-10.116 9.439-5.397-0.189-9.618-4.716-9.431-10.116z" fill="url(#JAID_3_)"/>
<radialGradient id="JAID_4_" cx="123.9" cy="115.46" r="10.101" gradientTransform="matrix(1.4,0,0,1.3549,-76.467,-56.012)" gradientUnits="userSpaceOnUse">
<stop stop-color="#fff" offset=".0182"/>
<stop offset="1"/>
</radialGradient>
<circle id="JAID_C" cx="102.09" cy="102.57" r="7" fill="url(#JAID_4_)"/>
<linearGradient id="JAID_5_" x1="102.09" x2="102.09" y1="167.19" y2="142.34" gradientUnits="userSpaceOnUse">
<stop stop-color="#004759" offset="0"/>
<stop stop-color="#064867" offset=".0232"/>
<stop stop-color="#0F487B" offset=".0632"/>
<stop stop-color="#14488A" offset=".1023"/>
<stop stop-color="#194895" offset=".1399"/>
<stop stop-color="#1B479A" offset=".1752"/>
<stop stop-color="#1C479C" offset=".2061"/>
<stop stop-color="#08102B" offset="1"/>
</linearGradient>
<rect id="JAID_VB" x="62.439" y="146.37" width="79.294" height="23" fill="url(#JAID_5_)" stroke="#000"/>
<g fill="#fff">
<path d="m46.661 72.034-3.84-2.213c-0.075 0.127-0.147 0.259-0.221 0.386l3.841 2.217c0.073-0.137 0.146-0.259 0.22-0.39zm-2.094 3.934-3.984-1.943c-0.066 0.137-0.13 0.269-0.193 0.406l3.984 1.943c0.066-0.138 0.128-0.264 0.193-0.406zm-0.94 2.02-4.05-1.802c-0.062 0.139-0.123 0.272-0.184 0.402l4.051 1.807c0.059-0.135 0.123-0.27 0.183-0.407zm19.429-24.674-2.729-3.491c-0.119 0.091-0.233 0.184-0.351 0.276l2.729 3.491c0.118-0.09 0.233-0.184 0.351-0.276zm-17.475 20.67-3.916-2.079c-0.069 0.128-0.141 0.261-0.21 0.391l3.915 2.084c0.068-0.135 0.14-0.266 0.211-0.396zm-5.573 14.53-4.302-1.07c-0.036 0.143-0.074 0.285-0.11 0.432l4.302 1.071c0.036-0.148 0.073-0.289 0.11-0.433zm0.576-2.153-4.262-1.225c-0.041 0.147-0.082 0.29-0.121 0.434l4.261 1.222c0.041-0.147 0.08-0.29 0.122-0.431zm1.374-4.239-4.166-1.515c-0.052 0.138-0.103 0.28-0.153 0.419l4.166 1.516c0.051-0.144 0.103-0.282 0.153-0.42zm-2.45 8.563-4.337-0.921c-0.031 0.15-0.06 0.295-0.088 0.439l4.337 0.92c0.029-0.144 0.057-0.292 0.088-0.438zm1.722-6.459-4.217-1.367c-0.046 0.139-0.089 0.285-0.135 0.425l4.217 1.367c0.047-0.141 0.091-0.281 0.135-0.425zm13.623-23.367-3.295-2.965c-0.1 0.109-0.2 0.22-0.3 0.331l3.295 2.965c0.1-0.111 0.199-0.222 0.3-0.331zm3.125-3.19-3.079-3.184c-0.108 0.102-0.217 0.203-0.323 0.306l3.08 3.188c0.106-0.1 0.214-0.203 0.322-0.31zm-1.591 1.566-3.19-3.072c-0.104 0.104-0.208 0.212-0.31 0.319l3.188 3.074c0.104-0.109 0.207-0.215 0.312-0.321zm-17.3 33.639-4.365-0.766c-0.026 0.146-0.052 0.291-0.078 0.441l4.365 0.767c0.025-0.147 0.052-0.292 0.078-0.442zm20.531-36.711-2.966-3.297c-0.111 0.098-0.22 0.199-0.33 0.299l2.966 3.293c0.11-0.099 0.219-0.2 0.33-0.295zm1.697-1.449-2.85-3.4c-0.116 0.096-0.23 0.188-0.344 0.285l2.851 3.393c0.114-0.095 0.229-0.187 0.343-0.278zm-9.362 9.545-3.493-2.727c-0.092 0.112-0.184 0.231-0.274 0.349l3.494 2.726c0.09-0.114 0.182-0.231 0.273-0.348zm-1.357 1.774-3.588-2.606c-0.087 0.121-0.179 0.239-0.266 0.36l3.587 2.603c0.088-0.12 0.178-0.236 0.267-0.357zm-1.299 1.819-3.674-2.477c-0.085 0.124-0.167 0.25-0.25 0.369l3.677 2.479c0.082-0.122 0.162-0.247 0.247-0.371zm4.078-5.318-3.396-2.848c-0.095 0.113-0.195 0.226-0.29 0.341l3.396 2.847c0.095-0.114 0.192-0.227 0.29-0.34zm-5.567 7.592-3.76-2.348c-0.079 0.125-0.158 0.253-0.235 0.376l3.76 2.352c0.079-0.128 0.156-0.258 0.235-0.38zm-5.055 9.91-4.111-1.658c-0.056 0.141-0.107 0.278-0.163 0.419l4.111 1.659c0.055-0.141 0.107-0.279 0.163-0.42zm-4.016 15.043-4.389-0.616c-0.021 0.146-0.041 0.293-0.06 0.444l4.391 0.614c0.019-0.148 0.038-0.294 0.058-0.442zm-0.582 6.698c0-0.013 1e-3 -0.023 2e-3 -0.034l-4.429-0.153c0 0.011-1e-3 0.021-2e-3 0.035-5e-3 0.135-6e-3 0.275-0.01 0.412l4.43 0.153c4e-3 -0.137 4e-3 -0.276 9e-3 -0.413zm-0.034 2.199h-4.433c0 0.148 1e-3 0.298 2e-3 0.451l4.432-2e-3c1e-3 -0.152-1e-3 -0.302-1e-3 -0.449zm0.156-4.46-4.421-0.306c-0.01 0.147-0.022 0.295-0.033 0.444l4.422 0.309c0.01-0.153 0.023-0.3 0.032-0.447zm0.193-2.224-4.408-0.461c-0.016 0.148-0.03 0.297-0.043 0.447l4.407 0.46c0.015-0.147 0.029-0.295 0.044-0.446zm-0.312 8.916-4.429 0.158c5e-3 0.146 6e-3 0.295 0.012 0.443l4.429-0.154c-5e-3 -0.148-6e-3 -0.298-0.012-0.447zm0.111 2.23-4.422 0.311c0.011 0.148 0.023 0.3 0.036 0.448l4.421-0.311c-0.011-0.154-0.026-0.301-0.035-0.448zm0.811 6.652-4.367 0.771c0.026 0.144 0.054 0.289 0.08 0.44l4.367-0.771c-0.028-0.146-0.055-0.292-0.08-0.44zm-0.351-2.208-4.388 0.62c0.02 0.146 0.04 0.294 0.062 0.442l4.391-0.62c-0.023-0.146-0.042-0.293-0.065-0.442zm-0.265-2.216-4.407 0.462c0.015 0.146 0.028 0.298 0.046 0.447l4.408-0.467c-0.017-0.148-0.032-0.295-0.047-0.442zm115.31-44.306 3.584-2.608c-0.088-0.119-0.176-0.235-0.264-0.356l-3.586 2.603c0.09 0.121 0.181 0.24 0.266 0.361zm5.965 9.979 3.984-1.945c-0.066-0.132-0.131-0.269-0.194-0.4l-3.982 1.945c0.064 0.131 0.13 0.268 0.192 0.4zm-1.217-2.408 3.911-2.081c-0.069-0.134-0.141-0.262-0.212-0.394l-3.912 2.081c0.07 0.132 0.142 0.255 0.213 0.394zm3.008 6.488 4.106-1.661c-0.056-0.136-0.109-0.278-0.163-0.414l-4.11 1.661c0.057 0.134 0.112 0.279 0.167 0.414zm-0.856-2.051 4.048-1.809c-0.059-0.135-0.121-0.273-0.182-0.406l-4.051 1.802c0.063 0.141 0.124 0.271 0.185 0.413zm1.643 4.136 4.167-1.516c-0.052-0.142-0.105-0.28-0.157-0.419l-4.165 1.516c0.051 0.143 0.104 0.28 0.155 0.419zm-4.884-10.529 3.839-2.208c-0.075-0.136-0.15-0.268-0.224-0.393l-3.84 2.213c0.077 0.131 0.15 0.263 0.225 0.388zm-5.008-7.396 3.49-2.729c-0.09-0.119-0.181-0.236-0.275-0.353l-3.491 2.729c0.093 0.117 0.186 0.235 0.276 0.353zm-1.405-1.736 3.391-2.85c-0.094-0.116-0.188-0.227-0.286-0.339l-3.393 2.851c0.095 0.107 0.192 0.223 0.288 0.338zm-1.467-1.685 3.29-2.962c-0.101-0.11-0.2-0.22-0.3-0.331l-3.293 2.968c0.103 0.111 0.204 0.217 0.303 0.325zm5.502 7.033 3.677-2.48c-0.086-0.125-0.167-0.25-0.252-0.369l-3.672 2.48c0.084 0.119 0.167 0.244 0.247 0.369zm1.224 1.869 3.758-2.348c-0.078-0.129-0.158-0.252-0.239-0.375l-3.757 2.348c0.076 0.128 0.161 0.248 0.238 0.375zm9.612 29.857 4.418-0.309c-7e-3 -0.146-0.016-0.294-0.026-0.444l-4.42 0.312c9e-3 0.148 0.018 0.295 0.028 0.441zm-0.435-4.434 4.384-0.619c-0.016-0.148-0.033-0.296-0.057-0.442l-4.385 0.616c0.02 0.149 0.037 0.296 0.058 0.445zm-2.43-10.865 4.213-1.369c-0.044-0.146-0.087-0.287-0.132-0.427l-4.215 1.369c0.047 0.137 0.092 0.286 0.134 0.427zm2.961 17.531 4.428-0.155c0-0.147-5e-3 -0.301-0.01-0.446l-4.431 0.155c7e-3 0.15 0.011 0.3 0.013 0.446zm0.027 2.232h4.432c1e-3 -0.15-1e-3 -0.299-1e-3 -0.447l-4.432 2e-3c0 0.146 2e-3 0.294 1e-3 0.445zm-0.304-6.682 4.408-0.469c-0.015-0.146-0.029-0.293-0.047-0.44l-4.407 0.464c0.019 0.145 0.033 0.297 0.046 0.445zm-0.583-4.423 4.365-0.772c-0.028-0.147-0.054-0.291-0.082-0.438l-4.364 0.769c0.028 0.147 0.056 0.295 0.081 0.441zm-0.898-4.369 4.3-1.073c-0.035-0.143-0.07-0.286-0.104-0.434l-4.303 1.073c0.036 0.147 0.071 0.292 0.107 0.434zm-0.565-2.154 4.262-1.224c-0.041-0.142-0.083-0.286-0.124-0.43l-4.261 1.223c0.043 0.145 0.084 0.287 0.123 0.431zm1.051 4.333 4.333-0.923c-0.03-0.145-0.061-0.293-0.09-0.438l-4.335 0.923c0.03 0.144 0.058 0.29 0.092 0.438zm-30.698-42.503 2.215-3.839c-0.128-0.074-0.261-0.149-0.387-0.222l-2.217 3.84c0.128 0.075 0.259 0.15 0.389 0.221zm-55.513-4.057-1.662-4.11c-0.138 0.055-0.277 0.109-0.415 0.165l1.662 4.111c0.138-0.057 0.277-0.11 0.415-0.166zm69.523 15.004 3.189-3.082c-0.105-0.107-0.21-0.215-0.313-0.322l-3.186 3.081c0.106 0.108 0.208 0.216 0.31 0.323zm-20.354-18.966c-0.139-0.056-0.276-0.107-0.417-0.162l-1.66 4.11c0.142 0.055 0.279 0.107 0.417 0.163zm-44.972 2.464-1.371-4.215c-0.143 0.045-0.286 0.086-0.427 0.133l1.371 4.215c0.142-0.045 0.286-0.087 0.427-0.133zm-8.278 3.285-1.945-3.983c-0.134 0.063-0.268 0.13-0.401 0.194l1.943 3.983c0.134-0.065 0.269-0.13 0.403-0.194zm6.164-2.577-1.516-4.165c-0.142 0.049-0.28 0.104-0.421 0.156l1.519 4.166c0.14-0.053 0.278-0.106 0.418-0.157zm-13.905 6.983-2.48-3.676c-0.125 0.083-0.247 0.168-0.369 0.251l2.478 3.674c0.124-0.084 0.246-0.168 0.371-0.249zm5.749-3.408-2.083-3.914c-0.132 0.067-0.263 0.139-0.395 0.208l2.082 3.913c0.131-0.069 0.264-0.137 0.396-0.207zm-3.872 2.205-2.351-3.758c-0.125 0.078-0.253 0.153-0.38 0.232l2.351 3.76c0.124-0.079 0.252-0.157 0.38-0.234zm1.916-1.135-2.217-3.838c-0.128 0.074-0.258 0.149-0.387 0.223l2.218 3.838c0.129-0.075 0.257-0.149 0.386-0.223zm5.97-3-1.805-4.05c-0.136 0.06-0.27 0.121-0.406 0.183l1.803 4.048c0.137-0.059 0.272-0.121 0.408-0.181zm66.689 9.588 2.847-3.397c-0.113-0.096-0.228-0.188-0.344-0.284l-2.849 3.396c0.113 0.093 0.232 0.189 0.346 0.285zm-3.513-2.748 2.604-3.586c-0.121-0.087-0.244-0.172-0.363-0.258l-2.606 3.587c0.123 0.085 0.246 0.171 0.365 0.257zm1.777 1.346 2.728-3.493c-0.114-0.092-0.232-0.186-0.352-0.276l-2.726 3.493c0.12 0.091 0.232 0.185 0.35 0.276zm3.419 2.868 2.964-3.296c-0.112-0.101-0.219-0.2-0.33-0.299l-2.966 3.293c0.113 0.097 0.222 0.198 0.332 0.302zm1.631 1.516 3.077-3.187c-0.105-0.107-0.215-0.208-0.323-0.31l-3.078 3.189c0.109 0.104 0.218 0.206 0.324 0.308zm-10.523-8.222 2.348-3.76c-0.123-0.079-0.252-0.155-0.378-0.233l-2.349 3.759c0.127 0.077 0.254 0.154 0.379 0.234zm1.869 1.216 2.476-3.673c-0.121-0.084-0.245-0.167-0.368-0.25l-2.479 3.675c0.124 0.081 0.248 0.165 0.371 0.248zm-72.946 1.041-2.606-3.583c-0.122 0.085-0.243 0.169-0.364 0.257l2.606 3.585c0.121-0.087 0.243-0.172 0.364-0.259zm67.22-4.484 2.078-3.915c-0.13-0.07-0.262-0.142-0.391-0.21l-2.082 3.915c0.133 0.069 0.262 0.141 0.395 0.21zm-1.984-1.012 1.941-3.986c-0.135-0.063-0.268-0.128-0.404-0.193l-1.944 3.986c0.137 0.065 0.27 0.127 0.407 0.193zm-0.219-4.99c-0.138-0.061-0.271-0.125-0.411-0.186l-1.798 4.053c0.137 0.058 0.271 0.122 0.405 0.183zm-8.954-3.256c-0.142-0.041-0.284-0.08-0.429-0.121l-1.222 4.264c0.145 0.039 0.289 0.079 0.431 0.12zm-2.305-0.615c-0.143-0.036-0.283-0.075-0.432-0.109l-1.07 4.302c0.15 0.034 0.288 0.074 0.431 0.111zm4.587 1.308c-0.141-0.046-0.285-0.091-0.425-0.135l-1.373 4.217c0.147 0.044 0.287 0.088 0.429 0.135zm2.252 0.778c-0.139-0.051-0.28-0.104-0.418-0.152l-1.517 4.166c0.142 0.05 0.281 0.102 0.419 0.152zm39.536 75.77 4.362 0.77c0.027-0.146 0.053-0.294 0.079-0.438l-4.368-0.771c-0.022 0.146-0.048 0.295-0.073 0.439zm5.429-9.167-4.43-0.153c-1e-3 0.012 0 0.023 0 0.036-6e-3 0.135-0.017 0.273-0.021 0.41l4.429 0.154c7e-3 -0.137 0.017-0.277 0.021-0.412 1e-3 -0.013 1e-3 -0.024 1e-3 -0.035zm-4.782 4.746 4.407 0.463c0.015-0.149 0.026-0.298 0.043-0.445l-4.406-0.461c-0.017 0.15-0.028 0.297-0.044 0.443zm-0.288 2.216 4.388 0.615c0.022-0.148 0.046-0.293 0.064-0.439l-4.384-0.618c-0.024 0.148-0.049 0.296-0.068 0.442zm0.489-4.44 4.421 0.311c9e-3 -0.147 0.021-0.299 0.031-0.445l-4.42-0.309c-0.01 0.148-0.018 0.296-0.032 0.443zm-82.645-70.59 1.223 4.264c0.144-0.043 0.285-0.084 0.429-0.125l-1.222-4.26c-0.144 0.04-0.288 0.083-0.43 0.121zm4.625-1.152 0.922 4.337c0.146-0.031 0.291-0.062 0.438-0.092l-0.924-4.335c-0.144 0.03-0.29 0.059-0.436 0.09zm28.474-4e-3c-0.143-0.031-0.289-0.059-0.434-0.089l-0.921 4.336c0.146 0.03 0.289 0.057 0.438 0.089zm-30.798 0.538 1.074 4.301c0.146-0.036 0.289-0.07 0.435-0.106l-1.075-4.301c-0.146 0.036-0.289 0.07-0.434 0.106zm23.737-1.648c-0.146-0.016-0.305-0.028-0.444-0.043l-0.462 4.407c0.146 0.016 0.293 0.029 0.44 0.045zm-4.823-0.337-0.16 4.43h0.038c0.138 5e-3 0.28 0.015 0.417 0.019l0.153-4.428c-0.138-6e-3 -0.285-0.015-0.418-0.02-0.01 0-0.02 0-0.03-1e-3zm2.445 0.133c-0.147-0.011-0.295-0.024-0.445-0.032l-0.308 4.421c0.147 9e-3 0.3 0.021 0.446 0.033zm7.099 0.864c-0.144-0.026-0.292-0.052-0.44-0.077l-0.77 4.366c0.149 0.023 0.294 0.051 0.44 0.078zm-2.354-0.373c-0.146-0.019-0.297-0.039-0.443-0.061l-0.613 4.392c0.146 0.019 0.293 0.04 0.439 0.06zm-16.716-0.287 0.462 4.409c0.149-0.016 0.296-0.032 0.445-0.047l-0.465-4.408c-0.147 0.014-0.295 0.03-0.442 0.046zm-4.725 0.659 0.774 4.368c0.144-0.027 0.29-0.056 0.436-0.081l-0.77-4.366c-0.146 0.025-0.292 0.053-0.44 0.079zm2.357-0.373 0.618 4.391c0.146-0.02 0.296-0.039 0.441-0.058l-0.618-4.392c-0.146 0.021-0.295 0.039-0.441 0.059zm9.512-0.657 2e-3 4.431c0.146 0 0.297-1e-3 0.445 0l-2e-3 -4.432c-0.149-2e-3 -0.299 1e-3 -0.445 1e-3zm-2.382 0.04 0.152 4.429c0.147-5e-3 0.297-7e-3 0.445-0.012l-0.156-4.43c-0.148 3e-3 -0.297 6e-3 -0.441 0.013zm-2.388 0.122 0.313 4.421c0.147-0.011 0.297-0.02 0.445-0.029l-0.311-4.422c-0.15 9e-3 -0.298 0.02-0.447 0.03z"/>
<path d="m61.315 54.714-9.771-11.644c-0.114 0.096-0.23 0.19-0.343 0.285l9.772 11.636c0.113-0.094 0.228-0.186 0.342-0.277zm19.272-10.977-5.202-14.281c-0.141 0.049-0.279 0.103-0.42 0.154l5.204 14.283c0.14-0.053 0.278-0.106 0.418-0.156zm-33.926 28.297-13.164-7.592c-0.075 0.126-0.148 0.258-0.222 0.385l13.166 7.597c0.073-0.137 0.146-0.259 0.22-0.39zm118.47 21.242 14.964-2.644c-0.024-0.146-0.054-0.291-0.081-0.439l-14.964 2.642c0.028 0.147 0.057 0.295 0.081 0.441zm-126.05 21.814-14.969 2.645c0.026 0.146 0.054 0.295 0.08 0.439l14.969-2.644c-0.028-0.146-0.055-0.292-0.08-0.44zm7e-3 -22.216-14.969-2.632c-0.025 0.147-0.052 0.292-0.077 0.437l14.968 2.638c0.025-0.148 0.052-0.293 0.078-0.443zm131.28-28.886-13.158 7.6c0.079 0.129 0.15 0.262 0.225 0.387l13.155-7.597c-0.072-0.132-0.147-0.259-0.222-0.39zm-5.31 51.058c-0.021 0.146-0.049 0.297-0.074 0.439l14.963 2.635c0.025-0.146 0.051-0.294 0.077-0.439zm-12.503-72.006-9.763 11.644c0.111 0.094 0.229 0.189 0.345 0.285l9.763-11.646c-0.115-0.095-0.228-0.188-0.345-0.283zm-23.849-13.596-5.193 14.285c0.142 0.05 0.281 0.102 0.419 0.152l5.196-14.286c-0.141-0.05-0.281-0.102-0.422-0.151zm-26.691-4.596 6e-3 15.197c0.146-2e-3 0.297-3e-3 0.445-2e-3l-0.01-15.197c-0.144-1e-3 -0.297 2e-3 -0.441 2e-3z"/>
<path d="m89.598 33.525 1.324 7.485c0.144-0.026 0.29-0.056 0.436-0.081l-1.32-7.484c-0.147 0.025-0.294 0.054-0.44 0.08zm-36.223 29.009-5.823-4.883c-0.096 0.115-0.194 0.228-0.29 0.339l5.823 4.883c0.095-0.113 0.192-0.226 0.29-0.339zm17.1-14.153-3.801-6.581c-0.127 0.075-0.258 0.149-0.387 0.224l3.802 6.579c0.129-0.074 0.257-0.148 0.386-0.222zm95.54 56 7.596-4e-3c1e-3 -0.146 0-0.297-2e-3 -0.445l-7.595 4e-3c-1e-3 0.146 3e-3 0.294 1e-3 0.445zm-124.06-22.257-7.142-2.599c-0.051 0.138-0.102 0.28-0.152 0.418l7.142 2.599c0.05-0.144 0.102-0.282 0.152-0.418zm-3.837 21.852-7.598 3e-3c0 0.148 1e-3 0.298 1e-3 0.448l7.598-2e-3c1e-3 -0.152-1e-3 -0.302-1e-3 -0.449zm131.18-24.49-7.139 2.599c0.049 0.143 0.103 0.28 0.153 0.419l7.139-2.601c-0.05-0.138-0.102-0.278-0.153-0.417zm-12.753-21.874-5.818 4.893c0.096 0.107 0.192 0.223 0.288 0.337l5.816-4.884c-0.094-0.115-0.189-0.229-0.286-0.346zm-43.817-16.679c0.149 0.024 0.296 0.052 0.44 0.078l1.319-7.485c-0.146-0.026-0.294-0.053-0.44-0.077zm20.895 7.428c0.128 0.075 0.259 0.15 0.389 0.222l3.795-6.581c-0.13-0.075-0.258-0.15-0.387-0.223z"/>
</g>
<g transform="matrix(.72072 0 0 1 1.9949 0)" font-family="SimHei">
<text id="JAID_V" transform="scale(1.2168 .82185)" x="113.78167" y="200.23976" fill="#FFF" font-size="24.335px" stroke-width="1.2168" text-align="center" text-anchor="middle">0</text>
<text id="JAID_MR0" x="40.356762" y="128.75002" fill="#ffffff" font-size="12px" text-align="center" text-anchor="middle">0</text>
<g font-size="12px">
<text id="JAID_MR1" transform="translate(171.67,128.75)" x="63.773438" fill="#e72517" text-align="center" text-anchor="middle">100</text>
</g>
</g>
</g>
</svg>
